<svg width="200" height="150" viewBox="0 0 200 150" xmlns="http://www.w3.org/2000/svg">
  <defs>
    <linearGradient id="prayerGradient" x1="0%" y1="0%" x2="100%" y2="100%">
      <stop offset="0%" style="stop-color:#F59E0B;stop-opacity:0.3" />
      <stop offset="100%" style="stop-color:#D97706;stop-opacity:0.1" />
    </linearGradient>
    <linearGradient id="prayerIconGradient" x1="0%" y1="0%" x2="100%" y2="100%">
      <stop offset="0%" style="stop-color:#F59E0B" />
      <stop offset="100%" style="stop-color:#D97706" />
    </linearGradient>
  </defs>

  <!-- Background -->
  <rect width="200" height="150" rx="12" fill="url(#prayerGradient)"/>

  <!-- Prayer hands -->
  <path d="M100 40 C95 35, 90 35, 85 40 L85 65 C85 70, 90 75, 95 75 L100 75 L105 75 C110 75, 115 70, 115 65 L115 40 C110 35, 105 35, 100 40 Z"
        fill="none" stroke="url(#prayerIconGradient)" stroke-width="3" stroke-linecap="round"/>
  <path d="M95 75 L95 85 C95 90, 100 95, 105 95 L100 95 C95 95, 90 90, 90 85 L90 75"
        fill="none" stroke="url(#prayerIconGradient)" stroke-width="2" stroke-linecap="round"/>

  <!-- Decorative elements -->
  <circle cx="80" cy="30" r="2" fill="#F59E0B" opacity="0.6"/>
  <circle cx="120" cy="35" r="1.5" fill="#D97706" opacity="0.6"/>
  <circle cx="85" cy="25" r="1" fill="#F59E0B" opacity="0.8"/>

  <!-- Subtle pattern -->
  <pattern id="prayerPattern" x="0" y="0" width="20" height="20" patternUnits="userSpaceOnUse">
    <circle cx="10" cy="10" r="1" fill="#F59E0B" opacity="0.1"/>
  </pattern>
  <rect width="200" height="150" fill="url(#prayerPattern)"/>
</svg>


































