<svg width="512" height="512" viewBox="0 0 512 512" fill="none" xmlns="http://www.w3.org/2000/svg">
  <!-- Background Circle with Gradient -->
  <defs>
    <linearGradient id="bgGradient" x1="0%" y1="0%" x2="100%" y2="100%">
      <stop offset="0%" style="stop-color:#fbbf24;stop-opacity:1" />
      <stop offset="50%" style="stop-color:#f59e0b;stop-opacity:1" />
      <stop offset="100%" style="stop-color:#d97706;stop-opacity:1" />
    </linearGradient>
    <linearGradient id="crossGradient" x1="0%" y1="0%" x2="100%" y2="100%">
      <stop offset="0%" style="stop-color:#ffffff;stop-opacity:1" />
      <stop offset="100%" style="stop-color:#fef3c7;stop-opacity:1" />
    </linearGradient>
    <filter id="shadow" x="-20%" y="-20%" width="140%" height="140%">
      <feDropShadow dx="0" dy="4" stdDeviation="8" flood-color="#000000" flood-opacity="0.3"/>
    </filter>
  </defs>
  
  <!-- Main Background Circle -->
  <circle cx="256" cy="256" r="240" fill="url(#bgGradient)" filter="url(#shadow)"/>
  
  <!-- Inner Circle for Depth -->
  <circle cx="256" cy="256" r="200" fill="none" stroke="rgba(255,255,255,0.2)" stroke-width="8"/>
  
  <!-- Cross Symbol (Main Element) -->
  <g transform="translate(256, 256)">
    <!-- Vertical part of cross -->
    <rect x="-12" y="-80" width="24" height="160" rx="12" fill="url(#crossGradient)" filter="url(#shadow)"/>
    <!-- Horizontal part of cross -->
    <rect x="-60" y="-12" width="120" height="24" rx="12" fill="url(#crossGradient)" filter="url(#shadow)"/>
  </g>
  
  <!-- Decorative Elements -->
  <!-- Small circles representing spiritual growth -->
  <circle cx="180" cy="180" r="8" fill="rgba(255,255,255,0.8)"/>
  <circle cx="332" cy="180" r="8" fill="rgba(255,255,255,0.8)"/>
  <circle cx="180" cy="332" r="8" fill="rgba(255,255,255,0.8)"/>
  <circle cx="332" cy="332" r="8" fill="rgba(255,255,255,0.8)"/>
  
  <!-- Prayer hands silhouette (subtle) -->
  <g transform="translate(256, 320)" opacity="0.1">
    <path d="M-20 -15 Q-15 -25 -10 -20 Q-5 -15 0 -20 Q5 -15 10 -20 Q15 -25 20 -15 Q15 -5 10 -10 Q5 -5 0 -10 Q-5 -5 -10 -10 Q-15 -5 -20 -15 Z" fill="white"/>
  </g>
  
  <!-- Glow effect around the cross -->
  <circle cx="256" cy="256" r="120" fill="none" stroke="rgba(255,255,255,0.1)" stroke-width="2" stroke-dasharray="4,4"/>
</svg>
